<svg width="29" height="29" viewBox="0 0 29 29" fill="none" xmlns="http://www.w3.org/2000/svg">
<g id="ArrowUp">
<path id="Vector" fill-rule="evenodd" clip-rule="evenodd" d="M9.50326 9.28315C9.49787 9.01804 9.598 8.76164 9.78163 8.57035C9.96525 8.37905 10.2173 8.26852 10.4824 8.26305L18.9659 8.08942C19.2311 8.08404 19.4874 8.18416 19.6787 8.36779C19.87 8.55141 19.9806 8.80349 19.986 9.0686L20.1597 17.5521C20.1605 17.8143 20.0583 18.0663 19.8751 18.2539C19.6918 18.4415 19.4423 18.5496 19.1801 18.555C18.918 18.5603 18.6642 18.4625 18.4735 18.2826C18.2827 18.1027 18.1703 17.855 18.1604 17.593L18.0362 11.5231L10.013 19.8815C9.82932 20.0729 9.57717 20.1834 9.31201 20.1888C9.04685 20.1943 8.79039 20.0941 8.59906 19.9105C8.40772 19.7268 8.29718 19.4747 8.29176 19.2095C8.28633 18.9444 8.38646 18.6879 8.57012 18.4966L16.5933 10.1381L10.5234 10.2623C10.2582 10.2677 10.0019 10.1676 9.81056 9.98396C9.61926 9.80034 9.50873 9.54826 9.50326 9.28315Z" fill="#EBEBEB"/>
</g>
</svg>
