<svg width="25" height="24" viewBox="0 0 25 24" fill="none" xmlns="http://www.w3.org/2000/svg">
<g clip-path="url(#clip0_814_977)">
<path d="M12.5 2C6.975 2 2.5 6.475 2.5 12C2.49887 14.0993 3.15882 16.1456 4.38622 17.8487C5.61362 19.5517 7.34615 20.8251 9.338 21.488C9.838 21.575 10.025 21.275 10.025 21.012C10.025 20.775 10.012 19.988 10.012 19.15C7.5 19.613 6.85 18.538 6.65 17.975C6.537 17.687 6.05 16.8 5.625 16.562C5.275 16.375 4.775 15.912 5.612 15.9C6.4 15.887 6.962 16.625 7.15 16.925C8.05 18.437 9.488 18.012 10.062 17.75C10.15 17.1 10.412 16.663 10.7 16.413C8.475 16.163 6.15 15.3 6.15 11.475C6.15 10.387 6.537 9.488 7.175 8.787C7.075 8.537 6.725 7.512 7.275 6.137C7.275 6.137 8.112 5.875 10.025 7.163C10.8391 6.93706 11.6802 6.82334 12.525 6.825C13.375 6.825 14.225 6.937 15.025 7.162C16.937 5.862 17.775 6.138 17.775 6.138C18.325 7.513 17.975 8.538 17.875 8.788C18.512 9.488 18.9 10.375 18.9 11.475C18.9 15.313 16.563 16.163 14.338 16.413C14.7 16.725 15.013 17.325 15.013 18.263C15.013 19.6 15 20.675 15 21.013C15 21.275 15.188 21.587 15.688 21.487C17.673 20.8168 19.3979 19.541 20.6199 17.8392C21.8419 16.1373 22.4994 14.0951 22.5 12C22.5 6.475 18.025 2 12.5 2Z" fill="white"/>
</g>
<defs>
<clipPath id="clip0_814_977">
<rect width="24" height="24" fill="white" transform="translate(0.5)"/>
</clipPath>
</defs>
</svg>
