<svg width="25" height="24" viewBox="0 0 25 24" fill="none" xmlns="http://www.w3.org/2000/svg">
<g clip-path="url(#clip0_814_983)">
<path d="M22.6623 5.65593C21.8989 5.99362 21.0893 6.2154 20.2603 6.31393C21.134 5.79136 21.788 4.96894 22.1003 3.99993C21.2803 4.48793 20.3813 4.82993 19.4443 5.01493C18.8149 4.34151 17.9807 3.89489 17.0713 3.74451C16.1618 3.59413 15.2282 3.74842 14.4156 4.18338C13.6029 4.61834 12.9567 5.30961 12.5774 6.14972C12.1981 6.98983 12.107 7.93171 12.3183 8.82893C10.6554 8.74558 9.02863 8.31345 7.54358 7.56059C6.05854 6.80773 4.74842 5.75097 3.6983 4.45893C3.32659 5.09738 3.13125 5.82315 3.1323 6.56193C3.1323 8.01193 3.8703 9.29293 4.9923 10.0429C4.32831 10.022 3.67893 9.84271 3.0983 9.51993V9.57193C3.0985 10.5376 3.43267 11.4735 4.04414 12.221C4.65562 12.9684 5.50678 13.4814 6.4533 13.6729C5.83691 13.84 5.1906 13.8646 4.5633 13.7449C4.83016 14.5762 5.3503 15.3031 6.05089 15.824C6.75147 16.3449 7.59742 16.6337 8.4703 16.6499C7.60278 17.3313 6.60947 17.8349 5.54718 18.1321C4.48488 18.4293 3.37442 18.5142 2.2793 18.3819C4.19099 19.6114 6.41639 20.264 8.6893 20.2619C16.3823 20.2619 20.5893 13.8889 20.5893 8.36193C20.5893 8.18193 20.5843 7.99993 20.5763 7.82193C21.3952 7.23009 22.1019 6.49695 22.6633 5.65693L22.6623 5.65593Z" fill="#FDFDFD"/>
</g>
<defs>
<clipPath id="clip0_814_983">
<rect width="24" height="24" fill="white" transform="translate(0.5)"/>
</clipPath>
</defs>
</svg>
